<?xml version="1.0" encoding="UTF-8" standalone="no"?>
<svg
   xmlns:dc="http://purl.org/dc/elements/1.1/"
   xmlns:cc="http://creativecommons.org/ns#"
   xmlns:rdf="http://www.w3.org/1999/02/22-rdf-syntax-ns#"
   xmlns:svg="http://www.w3.org/2000/svg"
   xmlns="http://www.w3.org/2000/svg"
   xmlns:sodipodi="http://sodipodi.sourceforge.net/DTD/sodipodi-0.dtd"
   xmlns:inkscape="http://www.inkscape.org/namespaces/inkscape"
   width="135.08867"
   height="121.81773"
   viewBox="0 0 35.74221 32.230941"
   version="1.1"
   id="svg8277"
   inkscape:version="1.0.2-2 (e86c870879, 2021-01-15)"
   sodipodi:docname="digifact_logo_white.svg">
  <defs
     id="defs8271" />
  <sodipodi:namedview
     id="base"
     pagecolor="#ffffff"
     bordercolor="#666666"
     borderopacity="1.0"
     inkscape:pageopacity="0.0"
     inkscape:pageshadow="2"
     inkscape:zoom="1.979899"
     inkscape:cx="70.462892"
     inkscape:cy="156.18344"
     inkscape:document-units="px"
     inkscape:current-layer="layer1"
     inkscape:document-rotation="0"
     showgrid="false"
     units="px"
     fit-margin-top="0"
     fit-margin-left="0"
     fit-margin-right="0"
     fit-margin-bottom="0"
     showborder="false"
     inkscape:window-width="1343"
     inkscape:window-height="991"
     inkscape:window-x="192"
     inkscape:window-y="0"
     inkscape:window-maximized="0" />
  <metadata
     id="metadata8274">
    <rdf:RDF>
      <cc:Work
         rdf:about="">
        <dc:format>image/svg+xml</dc:format>
        <dc:type
           rdf:resource="http://purl.org/dc/dcmitype/StillImage" />
        <dc:title></dc:title>
      </cc:Work>
    </rdf:RDF>
  </metadata>
  <g
     inkscape:label="Capa 1"
     inkscape:groupmode="layer"
     id="layer1"
     transform="translate(26.624187,20.592237)">
    <path
       style="fill:#ffa300;fill-opacity:1;fill-rule:nonzero;stroke:none;stroke-width:0.352778"
       d="m -19.592057,-16.730972 0.0041,8.9159077 c 0.0014,2.1194231 1.73633,3.8543733 3.857128,3.852995 l 5.487349,-0.00138 c 4.0059576,-0.00138 7.2829317,-3.2811091 7.2815559,-7.2870667 l -0.00282,-5.487348 c 0,-2.120801 -1.7363265,-3.854373 -3.8571279,-3.854373 l -8.914529,0.0041 c -2.122181,0.0014 -3.855752,1.736329 -3.855752,3.85713 m 11.6320223,1.136881 0.00141,3.975641 c 0,1.467611 -1.1892457,2.6582354 -2.6568583,2.6582354 l -3.97564,0.00138 -0.0028,-6.6324984 z m 0,0"
       id="path1054" />
    <path
       style="fill:#ffffff;fill-opacity:1;fill-rule:nonzero;stroke:none;stroke-width:0.352778"
       d="m 1.9632171,-6.6161708 c 0,1.0569554 -0.8571372,1.9140951 -1.91409472,1.9140951 -1.05695408,0.00138 -1.91409468,-0.8557617 -1.91547058,-1.9127172 0,-1.0583334 0.8571372,-1.915473 1.91409475,-1.915473 1.05695405,-0.00138 1.91547055,0.8557617 1.91547055,1.9140951"
       id="path1056" />
    <path
       style="fill:#ffffff;fill-opacity:1;fill-rule:nonzero;stroke:none;stroke-width:0.352778"
       d="m -21.386264,9.2726118 c -0.858516,0.2246207 -1.697743,0.3376189 -2.516297,0.3376189 -1.813496,0.00141 -2.721624,-0.9715183 -2.721624,-2.9159297 -0.0014,-1.7955839 0.886079,-2.6940649 2.659613,-2.6954429 0.377582,0 0.764812,0.089572 1.160308,0.2673393 V 1.9676295 h 1.415245 z m -1.416621,-3.8088992 c -0.293522,-0.1929254 -0.660079,-0.2893879 -1.102431,-0.2893879 -0.879189,0.00138 -1.318782,0.4947158 -1.318782,1.4813913 0.0014,1.1727117 0.458886,1.7583757 1.373904,1.7583757 0.370692,0 0.719335,-0.052363 1.047309,-0.1557161 z m 0,0"
       id="path1058" />
    <path
       style="fill:#ffffff;fill-opacity:1;fill-rule:nonzero;stroke:none;stroke-width:0.352778"
       d="m -18.635697,3.0893529 h -1.416625 V 1.9662516 h 1.415245 z m 0.0014,6.5194985 h -1.415246 l -0.0028,-5.6113716 h 1.416657 z m 0,0"
       id="path1060" />
    <path
       style="fill:#ffffff;fill-opacity:1;fill-rule:nonzero;stroke:none;stroke-width:0.352778"
       d="m -12.289832,9.1789034 c 0,1.6384876 -0.985297,2.4584206 -2.954514,2.4597996 -0.691776,0 -1.305002,-0.08957 -1.838304,-0.267338 l -0.0014,-1.121725 c 0.545702,0.177765 1.161687,0.267339 1.849325,0.26596 1.01975,0 1.528248,-0.428569 1.528248,-1.2829509 -0.420303,0.1777648 -0.8723,0.2673386 -1.357369,0.2673386 -1.667426,0.00141 -2.501139,-0.9095071 -2.502518,-2.7298934 0,-1.8479507 0.970139,-2.7739924 2.911796,-2.7739924 0.65181,0 1.44005,0.075792 2.361957,0.2287545 z m -1.418,-3.9108721 c -0.231511,-0.086816 -0.560861,-0.1281575 -0.989433,-0.1281575 -0.979784,0 -1.468988,0.5401911 -1.467608,1.6191962 0,1.0445503 0.421678,1.5668273 1.266415,1.5654515 0.40652,0 0.803395,-0.096464 1.192005,-0.2893907 z m 0,0"
       id="path1062" />
    <path
       style="fill:#ffffff;fill-opacity:1;fill-rule:nonzero;stroke:none;stroke-width:0.352778"
       d="M -9.5406447,3.0852187 H -10.95589 l -0.0014,-1.1217234 h 1.4166256 z m 0.00282,6.5194981 -1.4166213,0.00141 -0.0014,-5.6113722 1.4152454,-0.00138 z m 0,0"
       id="path1064" />
    <path
       style="fill:#ffffff;fill-opacity:1;fill-rule:nonzero;stroke:none;stroke-width:0.352778"
       d="m -8.2011932,9.6047168 -0.00282,-5.6113708 c 0,-1.539269 0.8406025,-2.3095922 2.521811,-2.3095922 0.4588863,0 0.8764305,0.07028 1.2498811,0.2135957 v 1.1217233 c -0.3514019,-0.141938 -0.7358733,-0.213596 -1.1479072,-0.213596 -0.8061502,0.00138 -1.2085391,0.396875 -1.2071598,1.1864909 h 1.6825843 l 0.00141,1.1217233 -1.6839602,0.00138 0.00141,4.4882706 z m 0,0"
       id="path1066" />
    <path
       style="fill:#ffffff;fill-opacity:1;fill-rule:nonzero;stroke:none;stroke-width:0.352778"
       d="m -4.8842529,7.8559867 c 0,-1.1148308 0.8116641,-1.672938 2.4363717,-1.6743159 0.3817161,0 0.7634323,0.035829 1.1437726,0.1061088 V 5.8660998 c 0,-0.501606 -0.3610469,-0.7537867 -1.0845165,-0.7524088 -0.6132266,0 -1.2939784,0.089572 -2.0422554,0.2673393 v -1.121723 c 0.748277,-0.1791452 1.4290288,-0.2687176 2.0422554,-0.2687176 1.66604605,0 2.50113813,0.6159832 2.50113813,1.8479493 l 0.001411,3.7620433 -0.82268842,0.00141 -0.50298701,-0.5029836 c -0.4878247,0.3348638 -1.0252605,0.5029836 -1.6136798,0.5029836 -1.3711485,0.00141 -2.0574142,-0.5815331 -2.0587901,-1.745975 M -2.4464737,7.143572 c -0.6807483,0 -1.021126,0.2328898 -1.021126,0.6959106 0.00141,0.498849 0.2852562,0.7482735 0.8557614,0.7468941 0.4699141,0 0.9067518,-0.1460711 1.3091372,-0.4382135 V 7.2496816 c -0.3569122,-0.07028 -0.737249,-0.1061085 -1.1437725,-0.1061085"
       id="path1068" />
    <path
       style="fill:#ffffff;fill-opacity:1;fill-rule:nonzero;stroke:none;stroke-width:0.352778"
       d="M 5.5915932,9.4393522 C 5.1285724,9.5454607 4.6476374,9.5992064 4.1487885,9.5992064 2.153389,9.6006175 1.1556876,8.6304433 1.1543117,6.6887889 c 0,-1.7997182 0.997698,-2.6995771 2.9917181,-2.7009551 0.4988525,0 0.9797874,0.053743 1.4441841,0.1598525 V 5.2707872 C 5.127193,5.1633004 4.6820897,5.1109348 4.2535176,5.1109348 c -1.121724,0 -1.6825843,0.5250328 -1.6825843,1.5764758 0,1.1933799 0.5622396,1.7900718 1.6839637,1.7900718 0.4285686,0 0.872296,-0.053742 1.3366962,-0.1612301 z m 0,0"
       id="path1070" />
    <path
       style="fill:#ffffff;fill-opacity:1;fill-rule:nonzero;stroke:none;stroke-width:0.352778"
       d="M 6.4445994,3.0783286 H 7.4919085 L 7.7055048,3.9864555 H 9.116616 v 1.1217234 l -1.255395,0.00138 0.00141,2.5810639 c 0,0.5236563 0.226,0.7854809 0.6779966,0.7854809 l 0.5773949,-0.00141 V 9.5977883 H 7.8571217 C 6.9172969,9.5991994 6.4460105,9.0948047 6.4460105,8.0860825 Z m 0,0"
       id="path1072" />
  </g>
</svg>
